<svg xmlns="http://www.w3.org/2000/svg" viewBox="0 0 1200 630" width="1200" height="630">
  <defs>
    <linearGradient id="bg" x1="0%" y1="0%" x2="100%" y2="100%">
      <stop offset="0%" stop-color="#00D7EE"/>
      <stop offset="100%" stop-color="#6100FF"/>
    </linearGradient>
  </defs>
  <rect width="1200" height="630" fill="url(#bg)"/>
  <g transform="translate(140, 150)">
    <g fill="none" stroke="#FFFFFF" stroke-width="14" stroke-linecap="round" stroke-linejoin="round" opacity="0.9">
      <path d="M 60 30 Q 40 60 60 90 Q 80 120 60 150"/>
      <path d="M 110 30 Q 90 60 110 90 Q 130 120 110 150"/>
      <path d="M 160 30 Q 140 60 160 90 Q 180 120 160 150"/>
    </g>
    <path fill="#FFFFFF" d="M 30 170 L 30 290 Q 30 330 70 330 L 200 330 Q 240 330 240 290 L 240 170 Z"/>
    <path fill="none" stroke="#FFFFFF" stroke-width="16" stroke-linecap="round" d="M 240 200 Q 290 200 290 240 Q 290 280 240 280"/>
  </g>
  <text x="500" y="290" font-family="Helvetica, Arial, sans-serif" font-size="84" font-weight="700" fill="#FFFFFF">Tea at Bros</text>
  <text x="500" y="350" font-family="Helvetica, Arial, sans-serif" font-size="30" font-weight="400" fill="#FFFFFF" opacity="0.88">Group snack order · live NETS QR</text>
  <text x="500" y="450" font-family="Helvetica, Arial, sans-serif" font-size="22" font-weight="400" fill="#FFFFFF" opacity="0.78">Augmented Human Lab · tea.ahlab.org</text>
</svg>
